<?xml version="1.0" encoding="UTF-8" standalone="no"?>
<svg
   xmlns:dc="http://purl.org/dc/elements/1.1/"
   xmlns:cc="http://creativecommons.org/ns#"
   xmlns:rdf="http://www.w3.org/1999/02/22-rdf-syntax-ns#"
   xmlns:svg="http://www.w3.org/2000/svg"
   xmlns="http://www.w3.org/2000/svg"
   xmlns:sodipodi="http://sodipodi.sourceforge.net/DTD/sodipodi-0.dtd"
   xmlns:inkscape="http://www.inkscape.org/namespaces/inkscape"
   width="3950"
   height="512"
   viewBox="0 0 3950 512.00002"
   version="1.1"
   id="svg8"
   inkscape:export-filename="C:\Users\patrick\Documents\docs\dev\hass-dell-printer\images\logo.png"
   inkscape:export-xdpi="48.963959"
   inkscape:export-ydpi="48.963959"
   inkscape:version="1.0.2-2 (e86c870879, 2021-01-15)"
   sodipodi:docname="Dell_Technologies_logo.svg">
  <defs
     id="defs2" />
  <sodipodi:namedview
     id="base"
     pagecolor="#ffffff"
     bordercolor="#666666"
     borderopacity="1.0"
     inkscape:pageopacity="0.0"
     inkscape:pageshadow="2"
     inkscape:zoom="0.24748737"
     inkscape:cx="2269.1296"
     inkscape:cy="416.80045"
     inkscape:document-units="px"
     inkscape:current-layer="layer1"
     inkscape:document-rotation="0"
     showgrid="false"
     units="px" />
  <metadata
     id="metadata5">
    <rdf:RDF>
      <cc:Work
         rdf:about="">
        <dc:format>image/svg+xml</dc:format>
        <dc:type
           rdf:resource="http://purl.org/dc/dcmitype/StillImage" />
        <dc:title></dc:title>
      </cc:Work>
    </rdf:RDF>
  </metadata>
  <g
     inkscape:label="Layer 1"
     inkscape:groupmode="layer"
     id="layer1">
    <g
       id="g26"
       transform="matrix(54.604022,0,0,54.604022,12.620013,5.607051)">
      <path
         d="M 28.1,0.857 V 0.566 L 27.975,0.483 h -4.98 l -0.083,0.083 v 0.291 l 0.083,0.083 h 2.12 l 0.083,0.083 v 6.06 l 0.083,0.083 h 0.374 L 25.738,7.083 V 1.063 L 25.821,0.98 h 2.16 l 0.125,-0.124 z m 1.12,1.45 c -1.33,0 -2.12,0.954 -2.12,2.32 v 0.209 c 0,1.33 0.665,2.49 2.2,2.49 1.33,0 1.83,-0.872 1.91,-1.45 L 31.128,5.794 h -0.375 l -0.082,0.082 c -0.208,0.581 -0.583,0.955 -1.33,0.955 -1.25,0 -1.62,-1.16 -1.62,-1.74 l 0.084,-0.082 h 3.45 L 31.339,4.925 V 4.634 c 0,-1.37 -0.747,-2.32 -2.12,-2.32 z m 0,0.498 c 0.581,0 0.964,0.239 1.2,0.561 0.239,0.322 0.332,0.726 0.332,1.06 L 30.67,4.51 H 27.76 L 27.676,4.426 c 0,-0.332 0.0933,-0.737 0.332,-1.06 0.239,-0.322 0.624,-0.561 1.21,-0.561 z m 3.07,1.99 c 0,-1.33 0.664,-2.03 1.62,-2.03 0.955,0 1.33,0.581 1.45,1.16 l 0.083,0.083 h 0.415 l 0.083,-0.083 c -0.083,-0.955 -0.872,-1.62 -2.03,-1.62 -1.25,0 -2.2,0.789 -2.2,2.49 0,1.74 0.955,2.49 2.2,2.49 1.16,0 1.91,-0.664 2.03,-1.62 L 35.858,5.582 h -0.374 l -0.083,0.083 c -0.083,0.581 -0.498,1.16 -1.45,1.16 -0.955,0 -1.66,-0.664 -1.66,-2.03 z m 8.3,2.33 v -2.91 c 0,-1.25 -0.664,-1.91 -1.74,-1.91 -0.664,0 -1.25,0.291 -1.54,0.789 H 37.227 V 0.604 L 37.102,0.48 h -0.374 l -0.083,0.083 v 6.56 l 0.083,0.083 h 0.374 l 0.083,-0.083 v -2.62 c 0,-1.08 0.498,-1.74 1.54,-1.74 0.789,0 1.25,0.498 1.25,1.45 v 2.91 l 0.083,0.083 h 0.374 l 0.166,-0.083 z m 4.9,0 v -2.91 c 0,-1.25 -0.664,-1.91 -1.74,-1.91 -0.664,0 -1.25,0.291 -1.54,0.789 H 42.127 L 42.044,2.513 41.961,2.43 H 41.67 l -0.083,0.083 v 4.61 l 0.083,0.083 h 0.374 l 0.083,-0.083 v -2.62 c 0,-1.08 0.498,-1.74 1.54,-1.74 0.789,0 1.25,0.498 1.25,1.45 v 2.91 L 45,7.206 h 0.415 l 0.083,-0.083 z m 2.78,-4.78 c -1.25,0 -2.2,0.873 -2.2,2.49 0,1.62 0.956,2.49 2.2,2.49 1.244,0 2.2,-0.871 2.2,-2.49 0,-1.62 -0.956,-2.49 -2.2,-2.49 z m 0,0.457 c 0.478,0 0.882,0.198 1.17,0.551 0.285,0.353 0.451,0.862 0.451,1.48 0,0.623 -0.166,1.13 -0.451,1.48 -0.285,0.353 -0.69,0.549 -1.17,0.549 -0.478,0 -0.882,-0.196 -1.17,-0.549 -0.285,-0.353 -0.451,-0.862 -0.451,-1.48 0,-0.644 0.166,-1.15 0.451,-1.5 0.285,-0.348 0.69,-0.535 1.17,-0.535 z m 3.49,4.32 V 0.562 L 51.635,0.479 h -0.374 l -0.083,0.083 v 6.56 l 0.083,0.083 h 0.374 z m 2.87,-4.78 c -1.25,0 -2.2,0.873 -2.2,2.49 0,1.62 0.956,2.49 2.2,2.49 1.244,0 2.2,-0.871 2.2,-2.49 0,-1.62 -0.954,-2.49 -2.2,-2.49 z m 0,0.457 c 0.478,0 0.881,0.198 1.17,0.551 0.285,0.353 0.453,0.862 0.453,1.48 0,0.623 -0.168,1.13 -0.453,1.48 -0.285,0.353 -0.689,0.549 -1.17,0.549 -0.478,0 -0.882,-0.196 -1.17,-0.549 -0.287,-0.353 -0.455,-0.862 -0.455,-1.48 0,-0.644 0.168,-1.15 0.453,-1.5 0.285,-0.348 0.69,-0.535 1.17,-0.535 z m 4.73,-0.498 c -1.33,0 -2.04,1.08 -2.04,2.49 0,1.45 0.665,2.49 2.04,2.49 0.872,0 1.33,-0.374 1.54,-0.789 v 0.041 c 0,1.25 -0.29,2.2 -1.45,2.2 -0.872,0 -1.16,-0.373 -1.25,-0.871 L 58.116,7.778 h -0.373 l -0.084,0.084 c 0.083,0.789 0.666,1.33 1.83,1.33 1.25,0 2.04,-0.789 2.04,-2.7 V 2.502 L 61.445,2.42 H 61.154 L 61.072,2.502 60.988,3.084 H 60.906 C 60.698,2.71 60.241,2.295 59.366,2.295 Z m 0,0.457 c 0.478,0 0.862,0.165 1.13,0.502 0.265,0.337 0.41,0.846 0.41,1.53 0,0.685 -0.145,1.19 -0.41,1.53 -0.265,0.337 -0.649,0.504 -1.13,0.504 -0.478,0 -0.862,-0.167 -1.13,-0.504 -0.265,-0.337 -0.408,-0.846 -0.408,-1.53 0,-0.664 0.144,-1.17 0.408,-1.52 0.265,-0.343 0.649,-0.518 1.13,-0.518 z m 3.65,-1.2 V 0.977 L 62.927,0.894 h -0.374 l -0.125,0.083 v 0.581 l 0.083,0.083 h 0.374 z m 0,5.56 V 2.508 L 62.927,2.425 h -0.374 l -0.125,0.083 v 4.61 l 0.083,0.083 h 0.374 z m 2.78,-4.82 c -1.33,0 -2.12,0.954 -2.12,2.32 v 0.209 c 0,1.33 0.665,2.49 2.2,2.49 1.33,0 1.83,-0.872 1.91,-1.45 L 67.696,5.785 h -0.373 l -0.084,0.082 c -0.208,0.581 -0.581,0.955 -1.33,0.955 -1.25,0 -1.62,-1.16 -1.62,-1.74 L 64.373,5 h 3.45 L 67.907,4.916 V 4.625 c 0,-1.33 -0.79,-2.32 -2.12,-2.32 z m 0,0.498 c 0.581,0 0.966,0.239 1.21,0.561 0.239,0.322 0.332,0.726 0.332,1.06 l -0.084,0.084 h -2.91 L 64.256,4.417 c 0,-0.332 0.0933,-0.737 0.332,-1.06 0.239,-0.322 0.622,-0.561 1.2,-0.561 z m 6.19,3.16 c 0,-0.872 -0.498,-1.25 -1.45,-1.45 -0.955,-0.208 -1.54,-0.291 -1.54,-0.955 0,-0.498 0.374,-0.789 1.08,-0.789 0.872,0 1.16,0.374 1.16,0.872 l 0.083,0.083 h 0.374 l 0.0831,-0.083 c 0,-0.955 -0.789,-1.33 -1.74,-1.33 -1.08,0 -1.62,0.581 -1.62,1.25 0,0.789 0.581,1.16 1.54,1.33 0.955,0.208 1.45,0.291 1.45,1.08 0,0.498 -0.291,0.872 -1.25,0.872 -0.872,0 -1.25,-0.498 -1.25,-1.08 L 68.817,5.673 h -0.374 l -0.0831,0.083 c 0,0.872 0.664,1.54 1.83,1.54 1.2,0.042 1.79,-0.54 1.79,-1.33 z"
         fill="#808080"
         id="path12" />
      <path
         d="M 22.9,5.79 V 7.16 H 18.58 V 0.38 h 1.57 v 5.4 H 22.9 Z M 9.8,0 5.97,2.95 C 5.577,1.48 4.3,0.4 2.73,0.4 H -0.02 V 7.18 H 2.73 C 4.3,7.18 5.68,6.1 5.97,4.63 L 9.8,7.58 13.63,4.63 v 2.55 h 4.32 V 5.8 H 15.1 V 0.4 H 13.53 V 2.95 L 9.9,5.9 9.115,5.212 l 1.77,-1.38 1.87,-1.47 -1.08,-0.883 -3.63,2.85 L 7.26,3.641 10.89,0.891 9.81,0.008 H 9.8081 Z M 1.45,1.77 h 1.18 c 0.245,0 0.486,0.055 0.707,0.156 0.221,0.101 0.424,0.249 0.596,0.434 0.172,0.184 0.312,0.404 0.41,0.652 0.0982,0.249 0.152,0.526 0.152,0.82 0,0.27 -0.0481,0.533 -0.139,0.777 C 4.2654,4.853 4.133,5.077 3.967,5.267 3.801,5.457 3.603,5.613 3.377,5.722 3.151,5.831 2.899,5.892 2.629,5.892 h -1.18 v -4.12 z"
         fill="#007db8"
         id="path14" />
    </g>
  </g>
</svg>
